<svg width="20" height="20" fill="none" xmlns="http://www.w3.org/2000/svg"><circle cx="10" cy="10" r="10" fill="#FF6B08"/><g clip-path="url('#clip0_97732_12')" stroke="#fff" stroke-linecap="round" stroke-linejoin="round"><path d="M13.91 5H6.09A1.09 1.09 0 0 0 5 6.09v7.82c0 .602.488 1.09 1.09 1.09h7.82A1.09 1.09 0 0 0 15 13.91V6.09A1.09 1.09 0 0 0 13.91 5ZM7.5 5v10M12.5 5v10M5 10h10M5 7.5h2.5M5 12.5h2.5M12.5 12.5H15M12.5 7.5H15"/></g><defs><clipPath id="clip0_97732_12"><path fill="#fff" transform="translate(4 4)" d="M0 0h12v12H0z"/></clipPath></defs></svg>