<svg aria-hidden="true" style="width:0;height:0;position:absolute;overflow:hidden" xmlns="http://www.w3.org/2000/svg"><defs><symbol id="icon-film" viewBox="0 0 32 32"><path fill="none" stroke="#fff" style="stroke:var(--color1,#fff)" stroke-linejoin="round" stroke-linecap="round" stroke-width="2.667" d="M26.427 2.667H5.574a2.907 2.907 0 0 0-2.907 2.907v20.853a2.907 2.907 0 0 0 2.907 2.907h20.853a2.907 2.907 0 0 0 2.907-2.907V5.574a2.907 2.907 0 0 0-2.907-2.907zM9.333 2.667v26.667M22.667 2.667v26.667M2.667 16h26.667M2.667 9.333h6.667M2.667 22.667h6.667M22.667 22.667h6.667M22.667 9.333h6.667"/></symbol><symbol id="icon-arrow-left" viewBox="0 0 32 32"><path stroke-linejoin="round" stroke-linecap="round" stroke-width="2.667" d="M25.333 16H6.666M16 25.333 6.667 16 16 6.667"/></symbol><symbol id="icon-arrow-right" viewBox="0 0 32 32"><path stroke-linejoin="round" stroke-linecap="round" stroke-width="2.667" d="M6.667 16h18.667M16 25.333 25.333 16 16 6.667"/></symbol><symbol id="icon-heart" viewBox="0 0 32 32"><path fill="#ff6b08" style="fill:var(--color2,#ff6b08)" d="m16 30.583-2.24-2.24C5.44 20.983 0 16.023 0 9.943c0-4.96 3.84-8.8 8.8-8.8 2.72 0 5.44 1.28 7.2 3.36 1.76-2.08 4.48-3.36 7.2-3.36 4.96 0 8.8 3.84 8.8 8.8 0 6.08-5.44 11.04-13.76 18.4L16 30.583z"/></symbol><symbol id="icon-modal_close" viewBox="0 0 32 32"><path stroke-width="2.133" d="m8.533 8.533 14.933 14.933M8.533 23.467 23.466 8.534"/></symbol><symbol id="icon-close_icon" viewBox="0 0 32 32"><path d="m27.725 24.194-8.2-8.231 8.219-8.125a.869.869 0 0 0 0-1.225l-2.337-2.35c-.163-.162-.381-.25-.613-.25s-.45.094-.613.25L16 12.363 7.806 4.269c-.162-.162-.381-.25-.612-.25s-.45.094-.612.25l-2.331 2.35a.869.869 0 0 0 0 1.225l8.219 8.125-8.194 8.225c-.162.163-.256.381-.256.613s.088.45.256.613l2.338 2.35a.861.861 0 0 0 1.224 0L16 19.57l8.169 8.194a.86.86 0 0 0 1.226 0l2.337-2.35a.864.864 0 0 0 .256-.613.895.895 0 0 0-.262-.606z"/></symbol><symbol id="icon-search" viewBox="0 0 32 32"><path fill="none" stroke="#fff" style="stroke:var(--color1,#fff)" stroke-linejoin="round" stroke-linecap="round" stroke-width="2.667" d="M14.667 25.333c5.891 0 10.667-4.776 10.667-10.667S20.558 3.999 14.667 3.999 4 8.775 4 14.666s4.776 10.667 10.667 10.667zM28 28.001l-5.8-5.8"/></symbol><symbol id="icon-search-team" viewBox="0 0 32 32"><path fill="none" style="fill:var(--color2,#ff6b08)" stroke-linejoin="round" stroke-linecap="round" stroke-width="2.667" d="M14.667 25.333c5.891 0 10.667-4.776 10.667-10.667S20.558 3.999 14.667 3.999 4 8.775 4 14.666s4.776 10.667 10.667 10.667zM28 28.001l-5.8-5.8"/></symbol><symbol id="sticky-arrow" viewBox="0 0 256 256">&gt;<path fill="currentColor" d="m232.5 111.5-96-96a12 12 0 0 0-17 0l-96 96a12.2 12.2 0 0 0-2.6 13.1A12 12 0 0 0 32 132h36v76a20.1 20.1 0 0 0 20 20h80a20.1 20.1 0 0 0 20-20v-76h36a12 12 0 0 0 11.1-7.4 12.2 12.2 0 0 0-2.6-13.1ZM176 108a12 12 0 0 0-12 12v84H92v-84a12 12 0 0 0-12-12H61l67-67 67 67Z"/></symbol><symbol id="icon-moon" viewBox="0 0 32 32"><path d="m22.518 11.443-2.782.587 1.905 2.11-.301 2.827 2.595-1.16 2.595 1.16-.301-2.827 1.905-2.11-2.782-.587-1.418-2.464zM30.945 22.905l-1.822-.385-.929-1.614-.929 1.614-1.822.385 1.248 1.382-.197 1.852 1.7-.76 1.7.76-.198-1.852z"/><path d="M15.332 16c0-6.271 3.608-11.698 8.862-14.322A15.935 15.935 0 0 0 17.056 0c-8.837 0-16 7.163-16 16s7.163 16 16 16c2.566 0 4.989-.605 7.138-1.678-5.253-2.623-8.862-8.051-8.862-14.322z"/></symbol><symbol id="icon-sun" viewBox="0 0 32 32"><path d="M16 7.885c-4.474 0-8.115 3.64-8.115 8.115s3.64 8.115 8.115 8.115 8.115-3.64 8.115-8.115c0-4.474-3.64-8.115-8.115-8.115z"/><path d="m28.089 16 2.972-3.993a1.05 1.05 0 0 0-.529-1.629l-4.751-1.484.057-4.977a1.048 1.048 0 0 0-1.386-1.006l-4.716 1.592-2.88-4.06a1.048 1.048 0 0 0-1.712 0l-2.88 4.06-4.716-1.592a1.05 1.05 0 0 0-1.386 1.006l.057 4.977-4.751 1.484a1.05 1.05 0 0 0-.529 1.629L3.911 16 .939 19.993a1.05 1.05 0 0 0 .529 1.629l4.751 1.484-.057 4.977a1.048 1.048 0 0 0 1.386 1.006l4.716-1.592 2.88 4.06a1.05 1.05 0 0 0 1.712 0l2.88-4.06 4.716 1.592a1.05 1.05 0 0 0 1.386-1.006l-.057-4.977 4.751-1.484a1.05 1.05 0 0 0 .529-1.629L28.089 16zM16 26.214c-5.632 0-10.214-4.582-10.214-10.214S10.368 5.786 16 5.786 26.214 10.368 26.214 16 21.632 26.214 16 26.214z"/></symbol></defs></svg>