<svg width="20" height="20" viewBox="0 0 20 20" fill="none" xmlns="http://www.w3.org/2000/svg">
<circle cx="10" cy="10" r="10" fill="#FF6B08"/>
<g clip-path="url(#clip0_97732_12)">
<path d="M13.91 5H6.09C5.48801 5 5 5.48801 5 6.09V13.91C5 14.512 5.48801 15 6.09 15H13.91C14.512 15 15 14.512 15 13.91V6.09C15 5.48801 14.512 5 13.91 5Z" stroke="white" stroke-linecap="round" stroke-linejoin="round"/>
<path d="M7.5 5V15" stroke="white" stroke-linecap="round" stroke-linejoin="round"/>
<path d="M12.5 5V15" stroke="white" stroke-linecap="round" stroke-linejoin="round"/>
<path d="M5 10H15" stroke="white" stroke-linecap="round" stroke-linejoin="round"/>
<path d="M5 7.5H7.5" stroke="white" stroke-linecap="round" stroke-linejoin="round"/>
<path d="M5 12.5H7.5" stroke="white" stroke-linecap="round" stroke-linejoin="round"/>
<path d="M12.5 12.5H15" stroke="white" stroke-linecap="round" stroke-linejoin="round"/>
<path d="M12.5 7.5H15" stroke="white" stroke-linecap="round" stroke-linejoin="round"/>
</g>
<defs>
<clipPath id="clip0_97732_12">
<rect width="12" height="12" fill="white" transform="translate(4 4)"/>
</clipPath>
</defs>
</svg>
