<svg width="16" height="16" viewBox="0 0 16 16" fill="none" xmlns="http://www.w3.org/2000/svg">
<circle r="2.9602" transform="matrix(-1 0 0 1 7.94825 7.99999)" fill="white"/>
<path d="M7.98296 1L7.19879 4.23881H8.76712L7.98296 1Z" fill="white"/>
<path d="M7.98296 15L7.19879 11.7612H8.76712L7.98296 15Z" fill="white"/>
<path d="M15 7.97661L11.7612 7.19245V8.76077L15 7.97661Z" fill="white"/>
<path d="M1 7.97661L4.23881 7.19245L4.23881 8.76077L1 7.97661Z" fill="white"/>
<path d="M3.0155 3.03333L4.75119 5.878L5.86016 4.76903L3.0155 3.03333Z" fill="white"/>
<path d="M12.9149 12.9327L10.0702 11.1971L11.1792 10.0881L12.9149 12.9327Z" fill="white"/>
<path d="M12.9149 3.03332L10.0702 4.76901L11.1792 5.87799L12.9149 3.03332Z" fill="white"/>
<path d="M3.0155 12.933L4.75119 10.0883L5.86016 11.1973L3.0155 12.933Z" fill="white"/>
</svg>
